<svg width="141" height="25" viewBox="0 0 141 25" fill="none" xmlns="http://www.w3.org/2000/svg">
<g clip-path="url(#clip0)">
<path d="M23.535 21H27.8358V14.1914H34.5741V21H38.8631V4.08984H34.5741V10.7344H27.8358V4.08984H23.535V21ZM48.5963 21.3047C53.7525 21.3047 56.9517 17.9414 56.9517 12.5508V12.5273C56.9517 7.14844 53.7408 3.78516 48.5963 3.78516C43.4869 3.78516 40.2525 7.14844 40.2525 12.5273V12.5508C40.2525 17.9414 43.4634 21.3047 48.5963 21.3047ZM48.5963 17.7422C46.1822 17.7422 44.6353 15.7617 44.6353 12.5508V12.5273C44.6353 9.31641 46.1939 7.34766 48.5963 7.34766C51.022 7.34766 52.5806 9.32812 52.5806 12.5273V12.5508C52.5806 15.7266 51.0572 17.7422 48.5963 17.7422ZM58.3294 21H62.6302V15.1758H64.8216L67.7278 21H72.5559L69.1692 14.5312C70.927 13.7695 72.052 11.8945 72.052 9.72656V9.70312C72.052 6.11719 69.7434 4.08984 65.6536 4.08984H58.3294V21ZM62.6302 12.0586V7.33594H65.1497C66.6614 7.33594 67.6692 8.27344 67.6692 9.69141V9.71484C67.6692 11.1445 66.6966 12.0586 65.1731 12.0586H62.6302ZM73.5 21H77.8008V4.08984H73.5V21ZM79.3542 21H92.7019V17.543H84.4284V17.4609L92.4441 6.82031V4.08984H79.4831V7.54688H87.3933V7.62891L79.3542 18.2695V21ZM101.943 21.3047C107.099 21.3047 110.298 17.9414 110.298 12.5508V12.5273C110.298 7.14844 107.087 3.78516 101.943 3.78516C96.8334 3.78516 93.5991 7.14844 93.5991 12.5273V12.5508C93.5991 17.9414 96.81 21.3047 101.943 21.3047ZM101.943 17.7422C99.5287 17.7422 97.9819 15.7617 97.9819 12.5508V12.5273C97.9819 9.31641 99.5405 7.34766 101.943 7.34766C104.369 7.34766 105.927 9.32812 105.927 12.5273V12.5508C105.927 15.7266 104.404 17.7422 101.943 17.7422ZM111.676 21H115.965V11.1328H116.047L122.844 21H126.453V4.08984H122.164V13.8516H122.082L115.32 4.08984H111.676V21Z" fill="#eee"/>
<circle cx="134" cy="18" r="3" fill="#f7f7f7"/>
<path d="M12 8L19.7942 20.75H4.20577L12 8Z" fill="#ffffff"/>
</g>
<defs>
<clipPath id="clip0">
<rect width="141" height="25" fill="white"/>
</clipPath>
</defs>
</svg>
